<?xml version="1.0" standalone="no"?>
<!DOCTYPE svg PUBLIC "-//W3C//DTD SVG 20010904//EN"
 "http://www.w3.org/TR/2001/REC-SVG-20010904/DTD/svg10.dtd">
<svg version="1.0" xmlns="http://www.w3.org/2000/svg"
 width="192.000000pt" height="192.000000pt" viewBox="0 0 192.000000 192.000000"
 preserveAspectRatio="xMidYMid meet">
<metadata>
Created by potrace 1.11, written by Peter Selinger 2001-2013
</metadata>
<g transform="translate(0.000000,192.000000) scale(0.100000,-0.100000)"
fill="#000000" stroke="none">
<path d="M0 960 l0 -960 960 0 960 0 0 960 0 960 -960 0 -960 0 0 -960z m945
483 c-2 -10 -16 -76 -30 -148 -62 -307 -153 -504 -294 -638 -85 -81 -170 -119
-279 -125 l-84 -5 7 59 c20 161 15 148 68 156 106 15 189 94 267 253 54 109
91 228 118 372 l17 93 106 0 c97 0 107 -2 104 -17z m453 7 c110 -26 215 -108
262 -205 29 -61 39 -199 20 -284 -21 -98 -75 -196 -148 -270 -127 -127 -203
-151 -479 -151 -113 0 -193 4 -193 9 0 13 138 860 145 889 5 22 7 22 178 22
94 0 191 -5 215 -10z"/>
<path d="M1180 1254 c0 -3 -18 -113 -40 -244 -22 -131 -40 -246 -40 -254 0
-13 13 -16 65 -16 176 0 302 122 312 303 4 62 1 78 -19 117 -36 66 -105 100
-204 100 -41 0 -74 -3 -74 -6z"/>
</g>
</svg>
